<svg xmlns="http://www.w3.org/2000/svg" viewBox="0 0 1200 620" role="img" aria-labelledby="title desc">
  <title id="title">rndk-petdex-bridge connects agent events to one shared Petdex mascot</title>
  <desc id="desc">Hermes Agent, Claude Code hooks, and Codex hooks send activity through rndk-petdex-bridge to a local Petdex Desktop sidecar and one shared mascot.</desc>
  <defs>
    <linearGradient id="bg" x1="0" y1="0" x2="1" y2="1">
      <stop offset="0" stop-color="#10151c"/>
      <stop offset="1" stop-color="#1b242d"/>
    </linearGradient>
    <linearGradient id="bridge" x1="0" y1="0" x2="1" y2="1">
      <stop offset="0" stop-color="#f3c969"/>
      <stop offset="1" stop-color="#ef8d5b"/>
    </linearGradient>
    <filter id="softShadow" x="-20%" y="-20%" width="140%" height="140%">
      <feDropShadow dx="0" dy="12" stdDeviation="12" flood-color="#000000" flood-opacity=".28"/>
    </filter>
    <marker id="arrow" markerWidth="10" markerHeight="10" refX="8" refY="5" orient="auto">
      <path d="M0 0L10 5L0 10Z" fill="#f3c969"/>
    </marker>
  </defs>

  <rect width="1200" height="620" rx="28" fill="url(#bg)"/>
  <path d="M44 96H1156M44 520H1156" stroke="#dce8ef" stroke-opacity=".12"/>
  <path d="M72 44V576M1128 44V576" stroke="#dce8ef" stroke-opacity=".06"/>

  <g font-family="-apple-system,BlinkMacSystemFont,'Segoe UI',sans-serif" fill="#f5f0e7">
    <text x="72" y="78" font-size="15" letter-spacing="3" fill="#f3c969">ONE MASCOT / MANY AGENTS</text>
    <text x="72" y="155" font-size="52" font-weight="700">rndk-petdex-bridge</text>
    <text x="72" y="190" font-size="20" fill="#b8c5cc">A small Hermes plugin for a shared Petdex Desktop signal path.</text>
  </g>

  <g font-family="ui-monospace,SFMono-Regular,Menlo,monospace" font-size="14">
    <g filter="url(#softShadow)">
      <rect x="72" y="248" width="230" height="126" rx="18" fill="#24323c" stroke="#6e8490"/>
      <rect x="72" y="398" width="230" height="78" rx="18" fill="#24323c" stroke="#6e8490"/>
      <rect x="72" y="500" width="230" height="78" rx="18" fill="#24323c" stroke="#6e8490"/>
    </g>
    <g fill="#f5f0e7">
      <text x="96" y="282" font-size="17" font-weight="700">Hermes Agent</text>
      <text x="96" y="312" fill="#b8c5cc">pre_tool_call</text>
      <text x="96" y="338" fill="#b8c5cc">post_tool_call</text>
      <text x="96" y="364" fill="#b8c5cc">on_session_end</text>
      <text x="96" y="444" font-size="17" font-weight="700">Claude Code</text>
      <text x="96" y="468" fill="#b8c5cc">hooks</text>
      <text x="96" y="546" font-size="17" font-weight="700">Codex</text>
      <text x="96" y="570" fill="#b8c5cc">hooks</text>
    </g>

    <path d="M302 312H410" stroke="#f3c969" stroke-width="2" marker-end="url(#arrow)"/>
    <path d="M302 437H410" stroke="#f3c969" stroke-width="2" marker-end="url(#arrow)"/>
    <path d="M302 539H410" stroke="#f3c969" stroke-width="2" marker-end="url(#arrow)"/>

    <g filter="url(#softShadow)">
      <rect x="410" y="292" width="300" height="220" rx="24" fill="url(#bridge)"/>
    </g>
    <g fill="#201b18">
      <text x="440" y="338" font-size="13" letter-spacing="2">LOCAL PLUGIN</text>
      <text x="440" y="378" font-size="22" font-weight="700">rndk-petdex-bridge</text>
      <text x="440" y="418">fail-open lifecycle forwarding</text>
      <text x="440" y="450">isolated /rndk-petdex command</text>
      <text x="440" y="482">agent_source: rndk-hermes</text>
    </g>

    <path d="M710 402H808" stroke="#f3c969" stroke-width="2" marker-end="url(#arrow)"/>
    <g filter="url(#softShadow)">
      <rect x="808" y="292" width="320" height="220" rx="24" fill="#24323c" stroke="#8ba0aa"/>
    </g>
    <g fill="#f5f0e7">
      <text x="840" y="338" font-size="13" letter-spacing="2" fill="#f3c969">LOCAL SIDECAR</text>
      <text x="840" y="378" font-size="23" font-weight="700">Petdex Desktop</text>
      <text x="840" y="414" fill="#b8c5cc">127.0.0.1:7777</text>
      <text x="840" y="454" fill="#b8c5cc">X-Petdex-Update-Token</text>
      <text x="840" y="486" fill="#b8c5cc">/health  ·  /state</text>
    </g>
  </g>

  <g font-family="ui-monospace,SFMono-Regular,Menlo,monospace" font-size="13">
    <rect x="410" y="548" width="300" height="38" rx="19" fill="#2e3b43" stroke="#6e8490"/>
    <text x="560" y="573" text-anchor="middle" fill="#f5f0e7">running → idle → waving</text>
  </g>

  <g transform="translate(1030 548)">
    <circle r="32" fill="#f3c969"/>
    <path d="M-22 -10L-25 -34L-7 -21M22 -10L25 -34L7 -21" fill="#ef8d5b" stroke="#201b18" stroke-width="4" stroke-linejoin="round"/>
    <circle cx="-11" cy="0" r="4" fill="#201b18"/>
    <circle cx="11" cy="0" r="4" fill="#201b18"/>
    <path d="M-8 13Q0 20 8 13" fill="none" stroke="#201b18" stroke-width="3" stroke-linecap="round"/>
  </g>
  <text x="1090" y="604" text-anchor="middle" font-family="ui-monospace,SFMono-Regular,Menlo,monospace" font-size="12" fill="#b8c5cc">shared mascot</text>
</svg>