<svg xmlns="http://www.w3.org/2000/svg" viewBox="0 0 1200 640" role="img" aria-labelledby="title desc">
  <title id="title">rndk-petdex-bridge connects agent signals to one shared Petdex mascot</title>
  <desc id="desc">Hermes Agent, Claude Code, and Codex send lifecycle signals through a local bridge to the Petdex Desktop sidecar and one shared mascot.</desc>
  <defs>
    <linearGradient id="bg" x1="0" y1="0" x2="1" y2="1">
      <stop offset="0" stop-color="#0d141b"/>
      <stop offset="1" stop-color="#1b2730"/>
    </linearGradient>
    <linearGradient id="bridge" x1="0" y1="0" x2="1" y2="1">
      <stop offset="0" stop-color="#f3c969"/>
      <stop offset="1" stop-color="#ef8d5b"/>
    </linearGradient>
    <linearGradient id="signal" x1="0" y1="0" x2="1" y2="0">
      <stop offset="0" stop-color="#8ee3c4"/>
      <stop offset="1" stop-color="#f3c969"/>
    </linearGradient>
    <filter id="softShadow" x="-20%" y="-20%" width="140%" height="140%">
      <feDropShadow dx="0" dy="12" stdDeviation="12" flood-color="#000000" flood-opacity=".28"/>
    </filter>
    <marker id="arrow" markerWidth="10" markerHeight="10" refX="8" refY="5" orient="auto">
      <path d="M0 0L10 5L0 10Z" fill="#f3c969"/>
    </marker>
  </defs>

  <rect width="1200" height="640" rx="28" fill="url(#bg)"/>
  <path d="M44 102H1156M44 556H1156" stroke="#dce8ef" stroke-opacity=".12"/>
  <path d="M72 46V594M1128 46V594" stroke="#dce8ef" stroke-opacity=".06"/>

  <g font-family="-apple-system,BlinkMacSystemFont,'Segoe UI',sans-serif" fill="#f5f0e7">
    <text x="72" y="80" font-size="15" letter-spacing="3" fill="#f3c969">ONE MASCOT / MANY AGENTS</text>
    <text x="72" y="148" font-size="48" font-weight="700">rndk-petdex-bridge</text>
    <text x="72" y="184" font-size="20" fill="#b8c5cc">A small Hermes plugin for one shared Petdex Desktop signal path.</text>
    <text x="950" y="80" font-size="13" text-anchor="end" letter-spacing="2" fill="#8ee3c4">LOCAL · FAIL-OPEN · NAMESPACE-SAFE</text>
  </g>

  <g id="source-agents" font-family="ui-monospace,SFMono-Regular,Menlo,monospace" font-size="14" filter="url(#softShadow)">
    <rect x="72" y="242" width="230" height="102" rx="18" fill="#24343e" stroke="#6e8490"/>
    <rect x="72" y="366" width="230" height="78" rx="18" fill="#24343e" stroke="#6e8490"/>
    <rect x="72" y="466" width="230" height="78" rx="18" fill="#24343e" stroke="#6e8490"/>
    <g fill="#f5f0e7">
      <text x="96" y="276" font-size="17" font-weight="700">Hermes Agent</text>
      <text x="96" y="306" fill="#b8c5cc">lifecycle hooks</text>
      <text x="96" y="330" fill="#8ee3c4">+ tool signal bubbles</text>
      <text x="96" y="400" font-size="17" font-weight="700">Claude Code</text>
      <text x="96" y="424" fill="#b8c5cc">hooks</text>
      <text x="96" y="500" font-size="17" font-weight="700">Codex</text>
      <text x="96" y="524" fill="#b8c5cc">hooks</text>
    </g>
  </g>

  <g stroke="#f3c969" stroke-width="2" marker-end="url(#arrow)" fill="none">
    <path d="M302 293H410"/>
    <path d="M302 405H410"/>
    <path d="M302 505H410"/>
    <path d="M710 382H808"/>
  </g>

  <g id="bridge-node" font-family="ui-monospace,SFMono-Regular,Menlo,monospace" filter="url(#softShadow)">
    <rect x="410" y="270" width="300" height="224" rx="24" fill="url(#bridge)"/>
    <g fill="#201b18">
      <text x="440" y="316" font-size="13" letter-spacing="2">LOCAL PLUGIN</text>
      <text x="440" y="357" font-size="22" font-weight="700">rndk-petdex-bridge</text>
      <text x="440" y="397">lifecycle → signal</text>
      <text x="440" y="429">fail-open forwarding</text>
      <text x="440" y="461">/rndk-petdex · /bubble</text>
      <text x="440" y="483" font-size="12">agent_source: rndk-hermes</text>
    </g>
  </g>

  <g id="sidecar-node" font-family="ui-monospace,SFMono-Regular,Menlo,monospace" filter="url(#softShadow)">
    <rect x="808" y="270" width="320" height="224" rx="24" fill="#24343e" stroke="#8ba0aa"/>
    <g fill="#f5f0e7">
      <text x="840" y="316" font-size="13" letter-spacing="2" fill="#f3c969">LOCAL SIDECAR</text>
      <text x="840" y="357" font-size="23" font-weight="700">Petdex Desktop</text>
      <text x="840" y="393" fill="#b8c5cc">127.0.0.1:7777</text>
      <text x="840" y="429" fill="#b8c5cc">X-Petdex-Update-Token</text>
      <text x="840" y="463" fill="#b8c5cc">/health · /state · /bubble</text>
      <text x="840" y="483" font-size="12" fill="#8ee3c4">one shared desktop mascot</text>
    </g>
  </g>

  <g id="signal-strip" font-family="ui-monospace,SFMono-Regular,Menlo,monospace">
    <rect x="410" y="530" width="300" height="42" rx="21" fill="#2e3b43" stroke="#6e8490"/>
    <path d="M438 551H682" stroke="url(#signal)" stroke-width="3" stroke-linecap="round"/>
    <circle cx="438" cy="551" r="5" fill="#8ee3c4"/>
    <circle cx="560" cy="551" r="5" fill="#f3c969"/>
    <circle cx="682" cy="551" r="5" fill="#ef8d5b"/>
    <text x="560" y="618" text-anchor="middle" font-size="12" fill="#b8c5cc">running → idle → waving · failed stays fail-open</text>
  </g>

  <g id="shared-mascot" transform="translate(1042 548)">
    <circle r="32" fill="#f3c969"/>
    <path d="M-22 -10L-25 -34L-7 -21M22 -10L25 -34L7 -21" fill="#ef8d5b" stroke="#201b18" stroke-width="4" stroke-linejoin="round"/>
    <circle cx="-11" cy="0" r="4" fill="#201b18"/>
    <circle cx="11" cy="0" r="4" fill="#201b18"/>
    <path d="M-8 13Q0 20 8 13" fill="none" stroke="#201b18" stroke-width="3" stroke-linecap="round"/>
  </g>
</svg>
